<svg id="canvas" height="100%" xmlns="http://www.w3.org/2000/svg" version="1.1" xmlns:xlink="http://www.w3.org/1999/xlink" viewBox="0 0 1366 768"><rect width="1366" height="768" fill="#000000ff"></rect><path d="M109.94502507485197 289.1785290266953C70.13952478396118 300.5194377514106 13.481268943641567 273.05282542668533 -31.209389894782475 269.76796690118476C-75.90004873320652 266.4831083756842 -121.47047342776261 277.7715270474307 -158.19892795569217 269.46937787369166C-194.92738248362173 261.1672286999526 -221.88116487460434 245.65868168471366 -251.58011706235973 219.95507185875067C-281.2790692501151 194.25146203278769 -320.0192121826937 155.85747864451912 -336.3926410822245 115.24771891791369C-352.76606998175527 74.63795919130825 -349.7580126731383 21.475076919464016 -349.82069045954444 -23.70348650088198C-349.8833682459506 -68.88204992122797 -352.2222578554436 -115.94082811622263 -336.76870780066145 -155.82366160416228C-321.3151577458793 -195.70649509210193 -286.5788490110198 -231.65457818510478 -257.0993901308515 -263.0004874285198C-227.61993125068304 -294.34639667193494 -202.34496653768855 -330.40701362006894 -159.89195451965105 -343.89911706465267C-117.43894250161355 -357.3912205092364 -51.63668469769948 -344.35363661498326 -2.381318022626374 -343.9531080960223C46.87404865244673 -343.5525795770613 101.05508758891449 -355.27834840910873 135.64024553078775 -341.4959459508867C170.22540347266101 -327.7135434926647 179.88678666138583 -291.45181271842176 205.12962962861332 -261.2586933466903C230.3724725958408 -231.0655739749588 268.800390349394 -200.62212540993067 287.0973033341528 -160.33722972049785C305.3942163189116 -120.05233403106502 311.2346502895899 -65.29895531195041 314.91110753716623 -19.5493192100933C318.58756478474254 26.200316891763805 327.0372961007115 77.28194793014711 309.15604681961076 114.16058689064482C291.27479753851003 151.03922585114253 240.82544880802197 172.55285753021803 207.62361185056216 201.72251455289313C174.42177489310234 230.89217157556823 149.75052536574276 277.83762030198 109.94502507485197 289.1785290266953C70.13952478396118 300.5194377514106 13.481268943641567 273.05282542668533 -31.209389894782475 269.76796690118476 " fill="url(#SvgjsLinearGradient1557)"></path><defs><linearGradient gradientTransform="matrix(1,0,0,1,0,0)" id="SvgjsLinearGradient1557"><stop stop-color="#00ff00ff" offset="0"></stop><stop stop-color="#00ffffff" offset="1"></stop></linearGradient></defs></svg>